<svg xmlns="http://www.w3.org/2000/svg" width="41" height="42" fill="none" viewBox="0 0 41 42"><g filter="url(#filter0_d_1047_278)"><rect width="33" height="33" x="4" y=".5" fill="none" rx="10" shape-rendering="crispEdges"/><path fill="#DAD9D9" d="M21.5878 12.5H15.0788C14.483 12.5 14 12.9458 14 13.4958V19.5042C14 20.0542 14.483 20.5 15.0788 20.5H21.5878C22.1837 20.5 22.6667 20.0542 22.6667 19.5042V13.4958C22.6667 12.9458 22.1837 12.5 21.5878 12.5ZM25.8625 13.2854L23.3889 14.8604V18.1396L25.8625 19.7125C26.341 20.0167 27 19.7063 27 19.175V13.8229C27 13.2938 26.3432 12.9812 25.8625 13.2854Z"/></g><defs><filter id="filter0_d_1047_278" width="41" height="41" x="0" y=".5" color-interpolation-filters="sRGB" filterUnits="userSpaceOnUse"><feFlood flood-opacity="0" result="BackgroundImageFix"/><feColorMatrix in="SourceAlpha" result="hardAlpha" type="matrix" values="0 0 0 0 0 0 0 0 0 0 0 0 0 0 0 0 0 0 127 0"/><feOffset dy="4"/><feGaussianBlur stdDeviation="2"/><feComposite in2="hardAlpha" operator="out"/><feColorMatrix type="matrix" values="0 0 0 0 0 0 0 0 0 0 0 0 0 0 0 0 0 0 0.15 0"/><feBlend in2="BackgroundImageFix" mode="normal" result="effect1_dropShadow_1047_278"/><feBlend in="SourceGraphic" in2="effect1_dropShadow_1047_278" mode="normal" result="shape"/></filter></defs></svg>